# xmcd
#
# Track frame offsets:
#	150
#	20525
#	44312
#	65982
#	89110
#	109902
#	131335
#	150307
#	172042
#	191167
#
# Disc length: 2920 seconds
# Revision: 0
# Processed by: cddbd v1.5.2PL0 Copyright (c) Steve Scherf et al.
# Submitted via: dBpowerAMP V12.0
#
DISCID=8d0b660a
DTITLE=陳昇 - 私奔
DYEAR=1991
DGENRE=Pop
TTITLE0=把悲傷留給自己
TTITLE1=我喜歡私奔和我自己
TTITLE2=紅色氣球
TTITLE3=如風的少年
TTITLE4=少年夏不安
TTITLE5=最後一盞燈
TTITLE6=午後的蟬聲
TTITLE7=新樂園
TTITLE8=老爹的故事
TTITLE9=無神論者的悲歌
EXTD=
EXTT0=
EXTT1=
EXTT2=
EXTT3=
EXTT4=
EXTT5=
EXTT6=
EXTT7=
EXTT8=
EXTT9=
PLAYORDER=
